<svg width="176" height="48" viewBox="0 0 176 48" fill="none" xmlns="http://www.w3.org/2000/svg">
<rect width="176" height="48" fill="#B88E2F"/>
<path d="M39.344 20.64V23.44H43.104V25.216H39.344V28.176H43.584V30H37.104V18.816H43.584V20.64H39.344ZM50.5156 30L48.6916 27.248L47.0756 30H44.6756L47.5716 25.552L44.6436 21.136H47.1716L48.9796 23.872L50.6116 21.136H53.0116L50.0996 25.552L53.0436 30H50.5156ZM56.5003 22.416C56.7883 22.0107 57.1829 21.6747 57.6843 21.408C58.1963 21.1307 58.7776 20.992 59.4283 20.992C60.1856 20.992 60.8683 21.1787 61.4763 21.552C62.0949 21.9253 62.5803 22.4587 62.9323 23.152C63.2949 23.8347 63.4763 24.6293 63.4763 25.536C63.4763 26.4427 63.2949 27.248 62.9323 27.952C62.5803 28.6453 62.0949 29.184 61.4763 29.568C60.8683 29.952 60.1856 30.144 59.4283 30.144C58.7776 30.144 58.2016 30.0107 57.7003 29.744C57.2096 29.4773 56.8096 29.1413 56.5003 28.736V34.224H54.2603V21.136H56.5003V22.416ZM61.1883 25.536C61.1883 25.0027 61.0763 24.544 60.8523 24.16C60.6389 23.7653 60.3509 23.4667 59.9883 23.264C59.6363 23.0613 59.2523 22.96 58.8363 22.96C58.4309 22.96 58.0469 23.0667 57.6843 23.28C57.3323 23.4827 57.0443 23.7813 56.8203 24.176C56.6069 24.5707 56.5003 25.0347 56.5003 25.568C56.5003 26.1013 56.6069 26.5653 56.8203 26.96C57.0443 27.3547 57.3323 27.6587 57.6843 27.872C58.0469 28.0747 58.4309 28.176 58.8363 28.176C59.2523 28.176 59.6363 28.0693 59.9883 27.856C60.3509 27.6427 60.6389 27.3387 60.8523 26.944C61.0763 26.5493 61.1883 26.08 61.1883 25.536ZM67.344 18.16V30H65.104V18.16H67.344ZM73.4931 30.144C72.6398 30.144 71.8718 29.9573 71.1891 29.584C70.5065 29.2 69.9678 28.6613 69.5731 27.968C69.1891 27.2747 68.9971 26.4747 68.9971 25.568C68.9971 24.6613 69.1945 23.8613 69.5891 23.168C69.9945 22.4747 70.5438 21.9413 71.2371 21.568C71.9305 21.184 72.7038 20.992 73.5571 20.992C74.4105 20.992 75.1838 21.184 75.8771 21.568C76.5705 21.9413 77.1145 22.4747 77.5091 23.168C77.9145 23.8613 78.1171 24.6613 78.1171 25.568C78.1171 26.4747 77.9091 27.2747 77.4931 27.968C77.0878 28.6613 76.5331 29.2 75.8291 29.584C75.1358 29.9573 74.3571 30.144 73.4931 30.144ZM73.4931 28.192C73.8985 28.192 74.2771 28.096 74.6291 27.904C74.9918 27.7013 75.2798 27.4027 75.4931 27.008C75.7065 26.6133 75.8131 26.1333 75.8131 25.568C75.8131 24.7253 75.5891 24.08 75.1411 23.632C74.7038 23.1733 74.1651 22.944 73.5251 22.944C72.8851 22.944 72.3465 23.1733 71.9091 23.632C71.4825 24.08 71.2691 24.7253 71.2691 25.568C71.2691 26.4107 71.4771 27.0613 71.8931 27.52C72.3198 27.968 72.8531 28.192 73.4931 28.192ZM82.0003 22.512C82.2883 22.0427 82.6616 21.6747 83.1203 21.408C83.5896 21.1413 84.1229 21.008 84.7203 21.008V23.36H84.1283C83.4243 23.36 82.8909 23.5253 82.5283 23.856C82.1763 24.1867 82.0003 24.7627 82.0003 25.584V30H79.7603V21.136H82.0003V22.512ZM94.469 25.376C94.469 25.696 94.4477 25.984 94.405 26.24H87.925C87.9783 26.88 88.2023 27.3813 88.597 27.744C88.9917 28.1067 89.477 28.288 90.053 28.288C90.885 28.288 91.477 27.9307 91.829 27.216H94.245C93.989 28.0693 93.4983 28.7733 92.773 29.328C92.0477 29.872 91.157 30.144 90.101 30.144C89.2477 30.144 88.4797 29.9573 87.797 29.584C87.125 29.2 86.597 28.6613 86.213 27.968C85.8397 27.2747 85.653 26.4747 85.653 25.568C85.653 24.6507 85.8397 23.8453 86.213 23.152C86.5863 22.4587 87.109 21.9253 87.781 21.552C88.453 21.1787 89.2263 20.992 90.101 20.992C90.9437 20.992 91.6957 21.1733 92.357 21.536C93.029 21.8987 93.5463 22.416 93.909 23.088C94.2823 23.7493 94.469 24.512 94.469 25.376ZM92.149 24.736C92.1383 24.16 91.9303 23.7013 91.525 23.36C91.1197 23.008 90.6237 22.832 90.037 22.832C89.4823 22.832 89.013 23.0027 88.629 23.344C88.2557 23.6747 88.0263 24.1387 87.941 24.736H92.149ZM112.093 18.832V30H109.853V22.736L106.861 30H105.165L102.157 22.736V30H99.9165V18.832H102.461L106.013 27.136L109.565 18.832H112.093ZM118.243 30.144C117.39 30.144 116.622 29.9573 115.939 29.584C115.256 29.2 114.718 28.6613 114.323 27.968C113.939 27.2747 113.747 26.4747 113.747 25.568C113.747 24.6613 113.944 23.8613 114.339 23.168C114.744 22.4747 115.294 21.9413 115.987 21.568C116.68 21.184 117.454 20.992 118.307 20.992C119.16 20.992 119.934 21.184 120.627 21.568C121.32 21.9413 121.864 22.4747 122.259 23.168C122.664 23.8613 122.867 24.6613 122.867 25.568C122.867 26.4747 122.659 27.2747 122.243 27.968C121.838 28.6613 121.283 29.2 120.579 29.584C119.886 29.9573 119.107 30.144 118.243 30.144ZM118.243 28.192C118.648 28.192 119.027 28.096 119.379 27.904C119.742 27.7013 120.03 27.4027 120.243 27.008C120.456 26.6133 120.563 26.1333 120.563 25.568C120.563 24.7253 120.339 24.08 119.891 23.632C119.454 23.1733 118.915 22.944 118.275 22.944C117.635 22.944 117.096 23.1733 116.659 23.632C116.232 24.08 116.019 24.7253 116.019 25.568C116.019 26.4107 116.227 27.0613 116.643 27.52C117.07 27.968 117.603 28.192 118.243 28.192ZM126.75 22.512C127.038 22.0427 127.412 21.6747 127.87 21.408C128.34 21.1413 128.873 21.008 129.47 21.008V23.36H128.878C128.174 23.36 127.641 23.5253 127.278 23.856C126.926 24.1867 126.75 24.7627 126.75 25.584V30H124.51V21.136H126.75V22.512ZM139.219 25.376C139.219 25.696 139.198 25.984 139.155 26.24H132.675C132.728 26.88 132.952 27.3813 133.347 27.744C133.742 28.1067 134.227 28.288 134.803 28.288C135.635 28.288 136.227 27.9307 136.579 27.216H138.995C138.739 28.0693 138.248 28.7733 137.523 29.328C136.798 29.872 135.907 30.144 134.851 30.144C133.998 30.144 133.23 29.9573 132.547 29.584C131.875 29.2 131.347 28.6613 130.963 27.968C130.59 27.2747 130.403 26.4747 130.403 25.568C130.403 24.6507 130.59 23.8453 130.963 23.152C131.336 22.4587 131.859 21.9253 132.531 21.552C133.203 21.1787 133.976 20.992 134.851 20.992C135.694 20.992 136.446 21.1733 137.107 21.536C137.779 21.8987 138.296 22.416 138.659 23.088C139.032 23.7493 139.219 24.512 139.219 25.376ZM136.899 24.736C136.888 24.16 136.68 23.7013 136.275 23.36C135.87 23.008 135.374 22.832 134.787 22.832C134.232 22.832 133.763 23.0027 133.379 23.344C133.006 23.6747 132.776 24.1387 132.691 24.736H136.899Z" fill="white"/>
</svg>
