<svg width="1241" height="60" viewBox="0 0 1241 60" fill="none" xmlns="http://www.w3.org/2000/svg">
<line y1="0.5" x2="1240.01" y2="0.5" stroke="#D9D9D9"/>
<path d="M2.82345 52.832C4.17811 51.744 5.23945 50.8533 6.00745 50.16C6.77545 49.456 7.42078 48.7253 7.94345 47.968C8.47678 47.2 8.74345 46.448 8.74345 45.712C8.74345 45.0187 8.57278 44.4747 8.23145 44.08C7.90078 43.6747 7.36211 43.472 6.61545 43.472C5.89011 43.472 5.32478 43.7013 4.91945 44.16C4.52478 44.608 4.31145 45.2107 4.27945 45.968H2.87145C2.91411 44.7733 3.27678 43.8507 3.95945 43.2C4.64211 42.5493 5.52211 42.224 6.59945 42.224C7.69811 42.224 8.56745 42.528 9.20745 43.136C9.85811 43.744 10.1834 44.5813 10.1834 45.648C10.1834 46.5333 9.91678 47.3973 9.38345 48.24C8.86078 49.072 8.26345 49.808 7.59145 50.448C6.91945 51.0773 6.06078 51.8133 5.01545 52.656H10.5194V53.872H2.82345V52.832ZM12.2026 48.096C12.2026 46.2613 12.5012 44.832 13.0986 43.808C13.6959 42.7733 14.7412 42.256 16.2346 42.256C17.7172 42.256 18.7572 42.7733 19.3546 43.808C19.9519 44.832 20.2506 46.2613 20.2506 48.096C20.2506 49.9627 19.9519 51.4133 19.3546 52.448C18.7572 53.4827 17.7172 54 16.2346 54C14.7412 54 13.6959 53.4827 13.0986 52.448C12.5012 51.4133 12.2026 49.9627 12.2026 48.096ZM18.8106 48.096C18.8106 47.168 18.7466 46.384 18.6186 45.744C18.5012 45.0933 18.2506 44.5707 17.8666 44.176C17.4932 43.7813 16.9492 43.584 16.2346 43.584C15.5092 43.584 14.9546 43.7813 14.5706 44.176C14.1972 44.5707 13.9466 45.0933 13.8186 45.744C13.7012 46.384 13.6426 47.168 13.6426 48.096C13.6426 49.056 13.7012 49.8613 13.8186 50.512C13.9466 51.1627 14.1972 51.6853 14.5706 52.08C14.9546 52.4747 15.5092 52.672 16.2346 52.672C16.9492 52.672 17.4932 52.4747 17.8666 52.08C18.2506 51.6853 18.5012 51.1627 18.6186 50.512C18.7466 49.8613 18.8106 49.056 18.8106 48.096ZM22.0734 52.832C23.4281 51.744 24.4894 50.8533 25.2574 50.16C26.0254 49.456 26.6708 48.7253 27.1934 47.968C27.7268 47.2 27.9934 46.448 27.9934 45.712C27.9934 45.0187 27.8228 44.4747 27.4814 44.08C27.1508 43.6747 26.6121 43.472 25.8654 43.472C25.1401 43.472 24.5748 43.7013 24.1694 44.16C23.7748 44.608 23.5614 45.2107 23.5294 45.968H22.1214C22.1641 44.7733 22.5268 43.8507 23.2094 43.2C23.8921 42.5493 24.7721 42.224 25.8494 42.224C26.9481 42.224 27.8174 42.528 28.4574 43.136C29.1081 43.744 29.4334 44.5813 29.4334 45.648C29.4334 46.5333 29.1668 47.3973 28.6334 48.24C28.1108 49.072 27.5134 49.808 26.8414 50.448C26.1694 51.0773 25.3108 51.8133 24.2654 52.656H29.7694V53.872H22.0734V52.832ZM31.4206 45.344C31.4952 44.3627 31.8739 43.5947 32.5566 43.04C33.2392 42.4853 34.1246 42.208 35.2126 42.208C35.9379 42.208 36.5619 42.3413 37.0846 42.608C37.6179 42.864 38.0179 43.216 38.2846 43.664C38.5619 44.112 38.7006 44.6187 38.7006 45.184C38.7006 45.8453 38.5086 46.416 38.1246 46.896C37.7512 47.376 37.2606 47.6853 36.6526 47.824V47.904C37.3459 48.0747 37.8952 48.4107 38.3006 48.912C38.7059 49.4133 38.9086 50.0693 38.9086 50.88C38.9086 51.488 38.7699 52.0373 38.4926 52.528C38.2152 53.008 37.7992 53.3867 37.2446 53.664C36.6899 53.9413 36.0232 54.08 35.2446 54.08C34.1139 54.08 33.1859 53.7867 32.4606 53.2C31.7352 52.6027 31.3299 51.76 31.2446 50.672H32.6526C32.7272 51.312 32.9886 51.8347 33.4366 52.24C33.8846 52.6453 34.4819 52.848 35.2286 52.848C35.9752 52.848 36.5406 52.656 36.9246 52.272C37.3192 51.8773 37.5166 51.3707 37.5166 50.752C37.5166 49.952 37.2499 49.376 36.7166 49.024C36.1832 48.672 35.3779 48.496 34.3006 48.496H33.9326V47.28H34.3166C35.2979 47.2693 36.0392 47.1093 36.5406 46.8C37.0419 46.48 37.2926 45.9893 37.2926 45.328C37.2926 44.7627 37.1059 44.3093 36.7326 43.968C36.3699 43.6267 35.8472 43.456 35.1646 43.456C34.5032 43.456 33.9699 43.6267 33.5646 43.968C33.1592 44.3093 32.9192 44.768 32.8446 45.344H31.4206ZM48.9481 46.432H47.1081V54H45.6521V46.432H44.5161V45.232H45.6521V44.608C45.6521 43.6267 45.9027 42.912 46.4041 42.464C46.9161 42.0053 47.7321 41.776 48.8521 41.776V42.992C48.2121 42.992 47.7587 43.12 47.4921 43.376C47.2361 43.6213 47.1081 44.032 47.1081 44.608V45.232H48.9481V46.432ZM58.4217 45.232V54H56.9657V52.704C56.6884 53.152 56.299 53.504 55.7977 53.76C55.307 54.0053 54.763 54.128 54.1657 54.128C53.483 54.128 52.8697 53.9893 52.3257 53.712C51.7817 53.424 51.3497 52.9973 51.0297 52.432C50.7204 51.8667 50.5657 51.1787 50.5657 50.368V45.232H52.0057V50.176C52.0057 51.04 52.2244 51.7067 52.6617 52.176C53.099 52.6347 53.6964 52.864 54.4537 52.864C55.2324 52.864 55.8457 52.624 56.2937 52.144C56.7417 51.664 56.9657 50.9653 56.9657 50.048V45.232H58.4217ZM62.3361 46.656C62.5921 46.1547 62.9547 45.7653 63.4241 45.488C63.9041 45.2107 64.4854 45.072 65.1681 45.072V46.576H64.7841C63.1521 46.576 62.3361 47.4613 62.3361 49.232V54H60.8801V45.232H62.3361V46.656ZM67.6008 43.808C67.3235 43.808 67.0888 43.712 66.8968 43.52C66.7048 43.328 66.6088 43.0933 66.6088 42.816C66.6088 42.5387 66.7048 42.304 66.8968 42.112C67.0888 41.92 67.3235 41.824 67.6008 41.824C67.8675 41.824 68.0915 41.92 68.2728 42.112C68.4648 42.304 68.5608 42.5387 68.5608 42.816C68.5608 43.0933 68.4648 43.328 68.2728 43.52C68.0915 43.712 67.8675 43.808 67.6008 43.808ZM68.3048 45.232V54H66.8488V45.232H68.3048ZM75.0583 45.072C76.125 45.072 76.989 45.3973 77.6503 46.048C78.3117 46.688 78.6423 47.616 78.6423 48.832V54H77.2023V49.04C77.2023 48.1653 76.9837 47.4987 76.5463 47.04C76.109 46.5707 75.5117 46.336 74.7543 46.336C73.9863 46.336 73.373 46.576 72.9143 47.056C72.4663 47.536 72.2423 48.2347 72.2423 49.152V54H70.7863V45.232H72.2423V46.48C72.5303 46.032 72.9197 45.6853 73.4103 45.44C73.9117 45.1947 74.461 45.072 75.0583 45.072ZM84.8447 54.144C84.0234 54.144 83.2767 53.9573 82.6047 53.584C81.9434 53.2107 81.4207 52.6827 81.0367 52C80.6634 51.3067 80.4767 50.5067 80.4767 49.6C80.4767 48.704 80.6687 47.9147 81.0527 47.232C81.4474 46.5387 81.9807 46.0107 82.6527 45.648C83.3247 45.2747 84.0767 45.088 84.9087 45.088C85.7407 45.088 86.4927 45.2747 87.1647 45.648C87.8367 46.0107 88.3647 46.5333 88.7487 47.216C89.1434 47.8987 89.3407 48.6933 89.3407 49.6C89.3407 50.5067 89.138 51.3067 88.7327 52C88.338 52.6827 87.7994 53.2107 87.1167 53.584C86.434 53.9573 85.6767 54.144 84.8447 54.144ZM84.8447 52.864C85.3674 52.864 85.858 52.7413 86.3167 52.496C86.7754 52.2507 87.1434 51.8827 87.4207 51.392C87.7087 50.9013 87.8527 50.304 87.8527 49.6C87.8527 48.896 87.714 48.2987 87.4367 47.808C87.1594 47.3173 86.7967 46.9547 86.3487 46.72C85.9007 46.4747 85.4154 46.352 84.8927 46.352C84.3594 46.352 83.8687 46.4747 83.4207 46.72C82.9834 46.9547 82.6314 47.3173 82.3647 47.808C82.098 48.2987 81.9647 48.896 81.9647 49.6C81.9647 50.3147 82.0927 50.9173 82.3487 51.408C82.6154 51.8987 82.9674 52.2667 83.4047 52.512C83.842 52.7467 84.322 52.864 84.8447 52.864ZM91.7191 54.096C91.4417 54.096 91.2071 54 91.0151 53.808C90.8231 53.616 90.7271 53.3813 90.7271 53.104C90.7271 52.8267 90.8231 52.592 91.0151 52.4C91.2071 52.208 91.4417 52.112 91.7191 52.112C91.9857 52.112 92.2097 52.208 92.3911 52.4C92.5831 52.592 92.6791 52.8267 92.6791 53.104C92.6791 53.3813 92.5831 53.616 92.3911 53.808C92.2097 54 91.9857 54.096 91.7191 54.096ZM105.472 51.52H100.608L99.7121 54H98.1761L102.208 42.912H103.888L107.904 54H106.368L105.472 51.52ZM105.056 50.336L103.04 44.704L101.024 50.336H105.056ZM111.117 42.16V54H109.661V42.16H111.117ZM115.055 42.16V54H113.599V42.16H115.055ZM123.258 46.656C123.514 46.1547 123.877 45.7653 124.346 45.488C124.826 45.2107 125.407 45.072 126.09 45.072V46.576H125.706C124.074 46.576 123.258 47.4613 123.258 49.232V54H121.802V45.232H123.258V46.656ZM128.523 43.808C128.245 43.808 128.011 43.712 127.819 43.52C127.627 43.328 127.531 43.0933 127.531 42.816C127.531 42.5387 127.627 42.304 127.819 42.112C128.011 41.92 128.245 41.824 128.523 41.824C128.789 41.824 129.013 41.92 129.195 42.112C129.387 42.304 129.483 42.5387 129.483 42.816C129.483 43.0933 129.387 43.328 129.195 43.52C129.013 43.712 128.789 43.808 128.523 43.808ZM129.227 45.232V54H127.771V45.232H129.227ZM135.324 45.088C136.082 45.088 136.743 45.2533 137.308 45.584C137.884 45.9147 138.311 46.3307 138.588 46.832V45.232H140.06V54.192C140.06 54.992 139.89 55.7013 139.548 56.32C139.207 56.9493 138.716 57.44 138.076 57.792C137.447 58.144 136.711 58.32 135.868 58.32C134.716 58.32 133.756 58.048 132.988 57.504C132.22 56.96 131.767 56.2187 131.628 55.28H133.068C133.228 55.8133 133.559 56.24 134.06 56.56C134.562 56.8907 135.164 57.056 135.868 57.056C136.668 57.056 137.319 56.8053 137.82 56.304C138.332 55.8027 138.588 55.0987 138.588 54.192V52.352C138.3 52.864 137.874 53.2907 137.308 53.632C136.743 53.9733 136.082 54.144 135.324 54.144C134.546 54.144 133.836 53.952 133.196 53.568C132.567 53.184 132.071 52.6453 131.708 51.952C131.346 51.2587 131.164 50.4693 131.164 49.584C131.164 48.688 131.346 47.904 131.708 47.232C132.071 46.5493 132.567 46.0213 133.196 45.648C133.836 45.2747 134.546 45.088 135.324 45.088ZM138.588 49.6C138.588 48.9387 138.455 48.3627 138.188 47.872C137.922 47.3813 137.559 47.008 137.1 46.752C136.652 46.4853 136.156 46.352 135.612 46.352C135.068 46.352 134.572 46.48 134.124 46.736C133.676 46.992 133.319 47.3653 133.052 47.856C132.786 48.3467 132.652 48.9227 132.652 49.584C132.652 50.256 132.786 50.8427 133.052 51.344C133.319 51.8347 133.676 52.2133 134.124 52.48C134.572 52.736 135.068 52.864 135.612 52.864C136.156 52.864 136.652 52.736 137.1 52.48C137.559 52.2133 137.922 51.8347 138.188 51.344C138.455 50.8427 138.588 50.2613 138.588 49.6ZM146.873 45.072C147.534 45.072 148.131 45.216 148.665 45.504C149.198 45.7813 149.614 46.2027 149.913 46.768C150.222 47.3333 150.377 48.0213 150.377 48.832V54H148.937V49.04C148.937 48.1653 148.718 47.4987 148.281 47.04C147.843 46.5707 147.246 46.336 146.489 46.336C145.721 46.336 145.107 46.576 144.649 47.056C144.201 47.536 143.977 48.2347 143.977 49.152V54H142.521V42.16H143.977V46.48C144.265 46.032 144.659 45.6853 145.161 45.44C145.673 45.1947 146.243 45.072 146.873 45.072ZM154.531 46.432V51.6C154.531 52.0267 154.622 52.3307 154.803 52.512C154.984 52.6827 155.299 52.768 155.747 52.768H156.819V54H155.507C154.696 54 154.088 53.8133 153.683 53.44C153.278 53.0667 153.075 52.4533 153.075 51.6V46.432H151.939V45.232H153.075V43.024H154.531V45.232H156.819V46.432H154.531ZM161.687 54.144C161.015 54.144 160.413 54.032 159.879 53.808C159.346 53.5733 158.925 53.2533 158.615 52.848C158.306 52.432 158.135 51.9573 158.103 51.424H159.607C159.65 51.8613 159.853 52.2187 160.215 52.496C160.589 52.7733 161.074 52.912 161.671 52.912C162.226 52.912 162.663 52.7893 162.983 52.544C163.303 52.2987 163.463 51.9893 163.463 51.616C163.463 51.232 163.293 50.9493 162.951 50.768C162.61 50.576 162.082 50.3893 161.367 50.208C160.717 50.0373 160.183 49.8667 159.767 49.696C159.362 49.5147 159.01 49.2533 158.711 48.912C158.423 48.56 158.279 48.1013 158.279 47.536C158.279 47.088 158.413 46.6773 158.679 46.304C158.946 45.9307 159.325 45.6373 159.815 45.424C160.306 45.2 160.866 45.088 161.495 45.088C162.466 45.088 163.25 45.3333 163.847 45.824C164.445 46.3147 164.765 46.9867 164.807 47.84H163.351C163.319 47.3813 163.133 47.0133 162.791 46.736C162.461 46.4587 162.013 46.32 161.447 46.32C160.925 46.32 160.509 46.432 160.199 46.656C159.89 46.88 159.735 47.1733 159.735 47.536C159.735 47.824 159.826 48.064 160.007 48.256C160.199 48.4373 160.434 48.5867 160.711 48.704C160.999 48.8107 161.394 48.9333 161.895 49.072C162.525 49.2427 163.037 49.4133 163.431 49.584C163.826 49.744 164.162 49.9893 164.439 50.32C164.727 50.6507 164.877 51.0827 164.887 51.616C164.887 52.096 164.754 52.528 164.487 52.912C164.221 53.296 163.842 53.6 163.351 53.824C162.871 54.0373 162.317 54.144 161.687 54.144ZM172.664 46.656C172.92 46.1547 173.283 45.7653 173.752 45.488C174.232 45.2107 174.814 45.072 175.496 45.072V46.576H175.112C173.48 46.576 172.664 47.4613 172.664 49.232V54H171.208V45.232H172.664V46.656ZM185.177 49.28C185.177 49.5573 185.161 49.8507 185.129 50.16H178.121C178.174 51.024 178.468 51.7013 179.001 52.192C179.545 52.672 180.201 52.912 180.969 52.912C181.598 52.912 182.121 52.768 182.537 52.48C182.964 52.1813 183.262 51.7867 183.433 51.296H185.001C184.766 52.1387 184.297 52.8267 183.593 53.36C182.889 53.8827 182.014 54.144 180.969 54.144C180.137 54.144 179.39 53.9573 178.729 53.584C178.078 53.2107 177.566 52.6827 177.193 52C176.82 51.3067 176.633 50.5067 176.633 49.6C176.633 48.6933 176.814 47.8987 177.177 47.216C177.54 46.5333 178.046 46.0107 178.697 45.648C179.358 45.2747 180.116 45.088 180.969 45.088C181.801 45.088 182.537 45.2693 183.177 45.632C183.817 45.9947 184.308 46.496 184.649 47.136C185.001 47.7653 185.177 48.48 185.177 49.28ZM183.673 48.976C183.673 48.4213 183.55 47.9467 183.305 47.552C183.06 47.1467 182.724 46.8427 182.297 46.64C181.881 46.4267 181.417 46.32 180.905 46.32C180.169 46.32 179.54 46.5547 179.017 47.024C178.505 47.4933 178.212 48.144 178.137 48.976H183.673ZM190.363 52.656L193.083 45.232H194.635L191.195 54H189.499L186.059 45.232H187.627L190.363 52.656ZM204.068 49.28C204.068 49.5573 204.052 49.8507 204.02 50.16H197.012C197.065 51.024 197.358 51.7013 197.892 52.192C198.436 52.672 199.092 52.912 199.86 52.912C200.489 52.912 201.012 52.768 201.428 52.48C201.854 52.1813 202.153 51.7867 202.324 51.296H203.892C203.657 52.1387 203.188 52.8267 202.484 53.36C201.78 53.8827 200.905 54.144 199.86 54.144C199.028 54.144 198.281 53.9573 197.62 53.584C196.969 53.2107 196.457 52.6827 196.084 52C195.71 51.3067 195.524 50.5067 195.524 49.6C195.524 48.6933 195.705 47.8987 196.068 47.216C196.43 46.5333 196.937 46.0107 197.588 45.648C198.249 45.2747 199.006 45.088 199.86 45.088C200.692 45.088 201.428 45.2693 202.068 45.632C202.708 45.9947 203.198 46.496 203.54 47.136C203.892 47.7653 204.068 48.48 204.068 49.28ZM202.564 48.976C202.564 48.4213 202.441 47.9467 202.196 47.552C201.95 47.1467 201.614 46.8427 201.188 46.64C200.772 46.4267 200.308 46.32 199.796 46.32C199.06 46.32 198.43 46.5547 197.908 47.024C197.396 47.4933 197.102 48.144 197.028 48.976H202.564ZM207.445 46.656C207.701 46.1547 208.064 45.7653 208.533 45.488C209.013 45.2107 209.595 45.072 210.277 45.072V46.576H209.893C208.261 46.576 207.445 47.4613 207.445 49.232V54H205.989V45.232H207.445V46.656ZM215.222 52.656L217.942 45.232H219.494L216.054 54H214.358L210.918 45.232H212.486L215.222 52.656ZM228.927 49.28C228.927 49.5573 228.911 49.8507 228.879 50.16H221.871C221.924 51.024 222.218 51.7013 222.751 52.192C223.295 52.672 223.951 52.912 224.719 52.912C225.348 52.912 225.871 52.768 226.287 52.48C226.714 52.1813 227.012 51.7867 227.183 51.296H228.751C228.516 52.1387 228.047 52.8267 227.343 53.36C226.639 53.8827 225.764 54.144 224.719 54.144C223.887 54.144 223.14 53.9573 222.479 53.584C221.828 53.2107 221.316 52.6827 220.943 52C220.57 51.3067 220.383 50.5067 220.383 49.6C220.383 48.6933 220.564 47.8987 220.927 47.216C221.29 46.5333 221.796 46.0107 222.447 45.648C223.108 45.2747 223.866 45.088 224.719 45.088C225.551 45.088 226.287 45.2693 226.927 45.632C227.567 45.9947 228.058 46.496 228.399 47.136C228.751 47.7653 228.927 48.48 228.927 49.28ZM227.423 48.976C227.423 48.4213 227.3 47.9467 227.055 47.552C226.81 47.1467 226.474 46.8427 226.047 46.64C225.631 46.4267 225.167 46.32 224.655 46.32C223.919 46.32 223.29 46.5547 222.767 47.024C222.255 47.4933 221.962 48.144 221.887 48.976H227.423ZM230.305 49.584C230.305 48.688 230.486 47.904 230.849 47.232C231.211 46.5493 231.707 46.0213 232.337 45.648C232.977 45.2747 233.691 45.088 234.481 45.088C235.163 45.088 235.798 45.248 236.385 45.568C236.971 45.8773 237.419 46.288 237.729 46.8V42.16H239.201V54H237.729V52.352C237.441 52.8747 237.014 53.3067 236.449 53.648C235.883 53.9787 235.222 54.144 234.465 54.144C233.686 54.144 232.977 53.952 232.337 53.568C231.707 53.184 231.211 52.6453 230.849 51.952C230.486 51.2587 230.305 50.4693 230.305 49.584ZM237.729 49.6C237.729 48.9387 237.595 48.3627 237.329 47.872C237.062 47.3813 236.699 47.008 236.241 46.752C235.793 46.4853 235.297 46.352 234.753 46.352C234.209 46.352 233.713 46.48 233.265 46.736C232.817 46.992 232.459 47.3653 232.193 47.856C231.926 48.3467 231.793 48.9227 231.793 49.584C231.793 50.256 231.926 50.8427 232.193 51.344C232.459 51.8347 232.817 52.2133 233.265 52.48C233.713 52.736 234.209 52.864 234.753 52.864C235.297 52.864 235.793 52.736 236.241 52.48C236.699 52.2133 237.062 51.8347 237.329 51.344C237.595 50.8427 237.729 50.2613 237.729 49.6Z" fill="black"/>
</svg>
